# xmcd
#
# Track frame offsets: 
#        150
#        14102
#        23262
#        37239
#        50621
#        65773
#        79140
#        91774
#        103901
#        118263
#        132384
#        146714
#        160690
#        172143
#        185402
#
# Disc length: 2659 seconds
#
# Revision: 0
# Processed by: cddbd v1.5.2PL0 Copyright (c) Steve Scherf et al.
# Submitted via: ExactAudioCopy v1.1
#
DISCID=d90a610f
DTITLE=Various Artist - Various ‎– Simply Blues
DYEAR=2012
DGENRE=Blues
TTITLE0=Count Basie - Blues In The Dark Featuring – Jimmy Rushing
TTITLE1=Duke Ellington - The "C" Jam Blues
TTITLE2=Charlie Parker - Cool Blues
TTITLE3=Illinois Jacquet - Illinois Goes To Chicago
TTITLE4=Lester Young - Jump Lester Jump
TTITLE5=Roy Milton and His Solid Senders - R.M. Blues
TTITLE6=Big Jay McNeely - The Deacon's Hop
TTITLE7=Count Basie - Swinging The Blues
TTITLE8=Dinah Shore With Leonard Joy's Orchestra - Blues In The Night
TTITLE9=Ethel Waters - Frankie And Johnny
TTITLE10=Jimmy Rushing - Jimmy's Round The Clock Blues
TTITLE11=Albinia Jones - Evil Gal Blues
TTITLE12=Helen Humes - Airplane Blues
TTITLE13=Tommy Brown - V8 Baby
TTITLE14=Mildred Bailey - Me And The Blues
EXTD=
EXTT0=
EXTT1=
EXTT2=
EXTT3=
EXTT4=
EXTT5=
EXTT6=
EXTT7=
EXTT8=
EXTT9=
EXTT10=
EXTT11=
EXTT12=
EXTT13=
EXTT14=
PLAYORDER=
